<svg xmlns="http://www.w3.org/2000/svg" xmlns:xlink="http://www.w3.org/1999/xlink" xml:space="preserve" id="documents" style="enable-background:new 0 0 128 128" version="1.1" viewBox="0 0 128 128">
  <path d="M109.1,46.7L66.6,14c-1.7-1.3-4.2-1.3-5.9,0L18.1,46.7c-1.2,0.9-1.9,2.3-1.9,3.9v59.6c0,2.7,2.2,4.9,4.9,4.9  h85c2.7,0,4.9-2.2,4.9-4.9V50.6C111,49.1,110.3,47.6,109.1,46.7z" style="fill:#ffc408"></path>
  <line x1="17.4" x2="75.4" y1="55.4" y2="96" style="fill:none;opacity:.2;stroke:#fff;stroke-linecap:round;stroke-linejoin:round;stroke-miterlimit:10;stroke-width:8"></line>
  <path d="M109.1,46.7L66.6,14c-1.7-1.3-4.2-1.3-5.9,0L18.1,46.7c-1.2,0.9-1.9,2.3-1.9,3.9v59.6c0,2.7,2.2,4.9,4.9,4.9h85  c2.7,0,4.9-2.2,4.9-4.9V50.6C111,49.1,110.3,47.6,109.1,46.7z" style="fill:none;stroke:#242c88;stroke-linecap:round;stroke-linejoin:round;stroke-miterlimit:10;stroke-width:2"></path>
  <path d="M63.6,81.6l47-33c-0.3-0.7-0.8-1.4-1.5-1.9L66.6,14c-1.7-1.3-4.2-1.3-5.9,0L18.1,46.7c-0.7,0.5-1.2,1.2-1.5,2  L63.6,81.6z" style="fill:#242c88;opacity:.2"></path>
  <g>
    <defs>
      <path id="SVGID_7_" d="M63.6,81.6l47-33c-0.3-0.7-0.8-1.4-1.5-1.9L111,13c-1.7-1.3-91.3-1.3-93,0l0.1,33.7c-0.7,0.5-1.2,1.2-1.5,2    L63.6,81.6z"></path>
    </defs>
    <clipPath id="SVGID_2_">
      <use xlink:href="#SVGID_7_" style="overflow:visible"></use>
    </clipPath>
    <rect width="72" height="49" x="22" y="20" style="clip-path:url(#SVGID_2_);fill:#fff"></rect>
    <rect width="72" height="49" x="22" y="20" style="clip-path:url(#SVGID_2_);fill:none;stroke:#242c88;stroke-width:2;stroke-linecap:round;stroke-linejoin:round;stroke-miterlimit:10"></rect>
    <path d="M94,69V25H31c-1.1,0-2,0.9-2,2v42H94z" style="opacity:.2;clip-path:url(#SVGID_2_);fill:#242c88"></path>
    <rect width="72" height="58" x="34" y="30" style="clip-path:url(#SVGID_2_);fill:#fff"></rect>
    <rect width="72" height="58" x="34" y="30" style="clip-path:url(#SVGID_2_);fill:none;stroke:#242c88;stroke-width:2;stroke-linecap:round;stroke-linejoin:round;stroke-miterlimit:10"></rect>
    <line x1="49" x2="91" y1="53" y2="53" style="opacity:.2;clip-path:url(#SVGID_2_);fill:none;stroke:#242c88;stroke-width:2;stroke-linecap:round;stroke-linejoin:round;stroke-miterlimit:10"></line>
    <line x1="49" x2="91" y1="47" y2="47" style="opacity:.2;clip-path:url(#SVGID_2_);fill:none;stroke:#242c88;stroke-width:2;stroke-linecap:round;stroke-linejoin:round;stroke-miterlimit:10"></line>
    <line x1="49" x2="91" y1="65" y2="65" style="opacity:.2;clip-path:url(#SVGID_2_);fill:none;stroke:#242c88;stroke-width:2;stroke-linecap:round;stroke-linejoin:round;stroke-miterlimit:10"></line>
    <line x1="49" x2="70" y1="71" y2="71" style="opacity:.2;clip-path:url(#SVGID_2_);fill:none;stroke:#242c88;stroke-width:2;stroke-linecap:round;stroke-linejoin:round;stroke-miterlimit:10"></line>
    <line x1="49" x2="91" y1="59" y2="59" style="opacity:.2;clip-path:url(#SVGID_2_);fill:none;stroke:#242c88;stroke-width:2;stroke-linecap:round;stroke-linejoin:round;stroke-miterlimit:10"></line>
  </g>
  <line x1="17.4" x2="78.2" y1="49.4" y2="91.9" style="fill:none;stroke:#242c88;stroke-linecap:round;stroke-linejoin:round;stroke-miterlimit:10;stroke-width:2"></line>
  <line x1="109.8" x2="63.6" y1="49.4" y2="81.6" style="fill:none;stroke:#242c88;stroke-linecap:round;stroke-linejoin:round;stroke-miterlimit:10;stroke-width:2"></line>
</svg>
