<svg xmlns="http://www.w3.org/2000/svg" width="26" height="26" id="user">
  <g fill="#fff" transform="translate(5 -1031.362)">
    <circle cx="8" cy="1044.362" r="13" fill="#239fdb" fill-rule="evenodd"></circle>
    <path fill="#0b5ecd" d="M12.465 25.973A13 13 0 0 0 13 26a13 13 0 0 0 .92-.033 13 13 0 0 0 1.289-.156 13 13 0 0 0 1.268-.286 13 13 0 0 0 1.234-.408 13 13 0 0 0 1.185-.531 13 13 0 0 0 1.127-.647 13 13 0 0 0 1.057-.755 13 13 0 0 0 .977-.858 13 13 0 0 0 .886-.951 13 13 0 0 0 .786-1.035 13 13 0 0 0 .68-1.108 13 13 0 0 0 .566-1.17 13 13 0 0 0 .445-1.22 13 13 0 0 0 .176-.69L15.482 6.04l-.01-.012h-.001A3.486 3.486 0 0 0 13 5a3.51 3.51 0 0 0-3.428 4.209 3.463 3.463 0 0 0 .955 1.77l.002.001 2.03 2.03H9.787c-1.537 0-2.795 1.243-2.795 2.775V20.5a.5.5 0 0 0 .5.5l4.973 4.973z" color="#000" font-family="sans-serif" font-weight="400" style="line-height:normal;text-indent:0;text-align:start;text-decoration-line:none;text-decoration-style:solid;text-decoration-color:#000;text-transform:none;block-progression:tb;isolation:auto;mix-blend-mode:normal" transform="translate(-5 1031.362)"></path>
    <path d="M8.467 1037.328a3.291 3.291 0 0 0-3.282 3.286 3.29 3.29 0 0 0 3.282 3.285 3.29 3.29 0 0 0 3.282-3.285 3.291 3.291 0 0 0-3.282-3.286zm0 .939c1.3 0 2.344 1.045 2.344 2.347a2.339 2.339 0 0 1-2.344 2.347 2.339 2.339 0 0 1-2.344-2.347 2.339 2.339 0 0 1 2.344-2.347zm-3.013 6.57c-1.441 0-2.62 1.168-2.62 2.605v4.42a.469.47 0 0 0 .468.469h10.332a.469.47 0 0 0 .467-.47V1047.443c0-1.437-1.18-2.604-2.621-2.604H5.454zm0 .94h6.026c.943 0 1.685.738 1.685 1.665V1051.392H3.77v-3.95c0-.927.74-1.665 1.683-1.665z" color="#000" font-family="sans-serif" font-weight="400" overflow="visible" style="line-height:normal;text-indent:0;text-align:start;text-decoration-line:none;text-decoration-style:solid;text-decoration-color:#000;text-transform:none;block-progression:tb;isolation:auto;mix-blend-mode:normal" transform="translate(-1.03 -69.863)scale(1.06642)"></path>
  </g>
</svg>
